<svg width="20" height="20" viewBox="0 0 20 20" fill="none" xmlns="http://www.w3.org/2000/svg">
<path d="M9.99996 10.8334C10.221 10.8334 10.4329 10.7456 10.5892 10.5893C10.7455 10.433 10.8333 10.221 10.8333 10C10.8333 9.77901 10.7455 9.56705 10.5892 9.41076C10.4329 9.25448 10.221 9.16669 9.99996 9.16669C9.77895 9.16669 9.56698 9.25448 9.4107 9.41076C9.25442 9.56705 9.16663 9.77901 9.16663 10C9.16663 10.221 9.25442 10.433 9.4107 10.5893C9.56698 10.7456 9.77895 10.8334 9.99996 10.8334Z" stroke="#516778" stroke-width="1.25" stroke-linecap="round" stroke-linejoin="round"/>
<path d="M9.99996 16.6667C10.221 16.6667 10.4329 16.5789 10.5892 16.4226C10.7455 16.2663 10.8333 16.0544 10.8333 15.8334C10.8333 15.6124 10.7455 15.4004 10.5892 15.2441C10.4329 15.0878 10.221 15 9.99996 15C9.77895 15 9.56698 15.0878 9.4107 15.2441C9.25442 15.4004 9.16663 15.6124 9.16663 15.8334C9.16663 16.0544 9.25442 16.2663 9.4107 16.4226C9.56698 16.5789 9.77895 16.6667 9.99996 16.6667Z" stroke="#516778" stroke-width="1.25" stroke-linecap="round" stroke-linejoin="round"/>
<path d="M9.99996 5.00001C10.221 5.00001 10.4329 4.91221 10.5892 4.75593C10.7455 4.59965 10.8333 4.38769 10.8333 4.16668C10.8333 3.94566 10.7455 3.7337 10.5892 3.57742C10.4329 3.42114 10.221 3.33334 9.99996 3.33334C9.77895 3.33334 9.56698 3.42114 9.4107 3.57742C9.25442 3.7337 9.16663 3.94566 9.16663 4.16668C9.16663 4.38769 9.25442 4.59965 9.4107 4.75593C9.56698 4.91221 9.77895 5.00001 9.99996 5.00001Z" stroke="#516778" stroke-width="1.25" stroke-linecap="round" stroke-linejoin="round"/>
</svg>
